<!--
  Copyright 2018-2020 Cargill Incorporated

  Licensed under the Apache License, Version 2.0 (the "License");
  you may not use this file except in compliance with the License.
  You may obtain a copy of the License at

      http://www.apache.org/licenses/LICENSE-2.0

  Unless required by applicable law or agreed to in writing, software
  distributed under the License is distributed on an "AS IS" BASIS,
  WITHOUT WARRANTIES OR CONDITIONS OF ANY KIND, either express or implied.
  See the License for the specific language governing permissions and
  limitations under the License.
-->
<?xml version="1.0" encoding="UTF-8" standalone="no"?>
<svg
   xmlns:dc="http://purl.org/dc/elements/1.1/"
   xmlns:cc="http://creativecommons.org/ns#"
   xmlns:rdf="http://www.w3.org/1999/02/22-rdf-syntax-ns#"
   xmlns:svg="http://www.w3.org/2000/svg"
   xmlns="http://www.w3.org/2000/svg"
   xmlns:sodipodi="http://sodipodi.sourceforge.net/DTD/sodipodi-0.dtd"
   xmlns:inkscape="http://www.inkscape.org/namespaces/inkscape"
   id="Layer_1"
   data-name="Layer 1"
   viewBox="0 0 137.71001 137.71"
   version="1.1"
   sodipodi:docname="splinter_logos_logomark_square_black.svg"
   width="137.71001"
   height="137.71001"
   inkscape:version="1.0 (4035a4f, 2020-05-01)">
  <metadata
     id="metadata112">
    <rdf:RDF>
      <cc:Work
         rdf:about="">
        <dc:format>image/svg+xml</dc:format>
        <dc:type
           rdf:resource="http://purl.org/dc/dcmitype/StillImage" />
        <dc:title>splinter_logos</dc:title>
      </cc:Work>
    </rdf:RDF>
  </metadata>
  <defs
     id="defs110" />
  <sodipodi:namedview
     inkscape:document-rotation="0"
     pagecolor="#ffffff"
     bordercolor="#666666"
     borderopacity="1"
     objecttolerance="10"
     gridtolerance="10"
     guidetolerance="10"
     inkscape:pageopacity="0"
     inkscape:pageshadow="2"
     inkscape:window-width="1251"
     inkscape:window-height="1174"
     id="namedview108"
     showgrid="false"
     inkscape:zoom="1.4458095"
     inkscape:cx="-46.472733"
     inkscape:cy="90.024946"
     inkscape:window-x="2240"
     inkscape:window-y="23"
     inkscape:window-maximized="0"
     inkscape:current-layer="Layer_1" />
  <title
     id="title103">splinter_logos</title>
  <path
     d="m 79.744343,88.478616 a 7.48,7.48 0 0 1 -8,8.31 7.61,7.61 0 0 1 -6.43,-4.87 7.17,7.17 0 0 1 -0.5,-2.69 3.3,3.3 0 0 0 -1.64,-2.9 l -19.11,-11 a 3.22,3.22 0 0 0 -3.31,0 7.4936807,7.4936807 0 1 1 -7.51,-12.97 3.2,3.2 0 0 0 1.69,-2.76 v -22.36 a 3.2,3.2 0 0 0 -1.69,-2.76 7.4727672,7.4727672 0 1 1 7.53,-12.91 3.26,3.26 0 0 0 3.32,0 l 19.1,-11 a 3.27,3.27 0 0 0 1.64,-2.8900004 7.17,7.17 0 0 1 0.5,-2.69 7.61,7.61 0 0 1 6.43,-4.94999998 7.48,7.48 0 1 1 -3.34,13.87000038 3.29,3.29 0 0 0 -3.32,0 l -19.1,11 a 3.38,3.38 0 0 0 -1.65,3 v 0 a 7.45,7.45 0 0 1 -3.82,6.51 3.19,3.19 0 0 0 -1.69,2.75 v 22.43 a 3.19,3.19 0 0 0 1.69,2.76 7.44,7.44 0 0 1 3.89,6.51 v 0 a 3.38,3.38 0 0 0 1.65,3 l 19.1,11 a 3.29,3.29 0 0 0 3.32,0 7.41,7.41 0 0 1 4.58,-1.05 7.51,7.51 0 0 1 6.67,6.66 z m -15.23,-32.57 a 7.51,7.51 0 0 0 4.59,-1 3.25,3.25 0 0 1 3.31,0 l 19.11,11 a 3.41,3.41 0 0 1 1.65,3 v 0 a 7.48,7.48 0 0 0 3.83,6.52 3.18,3.18 0 0 1 1.68,2.75 v 22.370004 a 3.18,3.18 0 0 1 -1.68,2.75 7.48,7.48 0 0 0 -3.83,6.52 v 0 a 3.39,3.39 0 0 1 -1.64,3 l -19.1,11 a 3.24,3.24 0 0 1 -3.32,0 7.48,7.48 0 1 0 -3.33,13.85 7.6,7.6 0 0 0 6.44,-4.87 6.91,6.91 0 0 0 0.49,-2.68 3.33,3.33 0 0 1 1.65,-2.9 l 19.1,-11 a 3.29,3.29 0 0 1 3.32,0 7.41,7.41 0 0 0 4.580007,1 7.47,7.47 0 0 0 2.95,-14 3.21,3.21 0 0 1 -1.69,-2.77 V 78.198616 a 3.22,3.22 0 0 1 1.69,-2.77 7.47,7.47 0 1 0 -7.530007,-12.9 3.29,3.29 0 0 1 -3.32,0 l -19.1,-11 a 3.32,3.32 0 0 1 -1.65,-2.9 6.94,6.94 0 0 0 -0.49,-2.68 7.59,7.59 0 0 0 -6.44,-4.91 7.48,7.48 0 0 0 -1.27,14.9 z"
     id="path105" />
</svg>
