<!--
  Copyright 2018-2021 Cargill Incorporated
  Licensed under Creative Commons Attribution 4.0 International License
  https://creativecommons.org/licenses/by/4.0/
-->
<svg
   xmlns:dc="http://purl.org/dc/elements/1.1/"
   xmlns:cc="http://creativecommons.org/ns#"
   xmlns:rdf="http://www.w3.org/1999/02/22-rdf-syntax-ns#"
   xmlns:svg="http://www.w3.org/2000/svg"
   xmlns="http://www.w3.org/2000/svg"
   xmlns:sodipodi="http://sodipodi.sourceforge.net/DTD/sodipodi-0.dtd"
   xmlns:inkscape="http://www.inkscape.org/namespaces/inkscape"
   inkscape:export-ydpi="200.77"
   inkscape:export-xdpi="200.77"
   inkscape:export-filename="/Users/seeley/splinter-docs/logos/png/splinter_logos_logomark_square_white.png"
   height="137.71001"
   width="137.71001"
   inkscape:version="1.0 (4035a4f, 2020-05-01)"
   sodipodi:docname="splinter_logos_logomark_square_white.svg"
   version="1.1"
   viewBox="0 0 137.71001 137.71"
   data-name="Layer 1"
   id="Layer_1">
  <metadata
     id="metadata559">
    <rdf:RDF>
      <cc:Work
         rdf:about="">
        <dc:format>image/svg+xml</dc:format>
        <dc:type
           rdf:resource="http://purl.org/dc/dcmitype/StillImage" />
        <dc:title>splinter_logos</dc:title>
        <dc:title>splinter_logos</dc:title>
      </cc:Work>
    </rdf:RDF>
  </metadata>
  <sodipodi:namedview
     inkscape:current-layer="Layer_1"
     inkscape:window-maximized="1"
     inkscape:window-y="23"
     inkscape:window-x="1440"
     inkscape:cy="68.855003"
     inkscape:cx="15.51032"
     inkscape:zoom="7.3197295"
     showgrid="false"
     id="namedview557"
     inkscape:window-height="1395"
     inkscape:window-width="2560"
     inkscape:pageshadow="2"
     inkscape:pageopacity="0"
     guidetolerance="10"
     gridtolerance="10"
     objecttolerance="10"
     borderopacity="1"
     bordercolor="#666666"
     pagecolor="#ffffff" />
  <defs
     id="defs550">
    <style
       id="style548">.cls-1{fill:#fff;}</style>
  </defs>
  <title
     id="title552">splinter_logos</title>
  <path
     id="path554"
     d="m 79.744345,88.478617 a 7.48,7.48 0 0 1 -8,8.31 7.61,7.61 0 0 1 -6.43,-4.87 7.17,7.17 0 0 1 -0.5,-2.69 3.3,3.3 0 0 0 -1.64,-2.9 l -19.11,-11 a 3.22,3.22 0 0 0 -3.31,0 7.4936807,7.4936807 0 1 1 -7.51,-12.97 3.2,3.2 0 0 0 1.69,-2.76 v -22.36 a 3.2,3.2 0 0 0 -1.69,-2.76 7.4727672,7.4727672 0 1 1 7.53,-12.91 3.26,3.26 0 0 0 3.32,0 l 19.1,-11 a 3.27,3.27 0 0 0 1.64,-2.8899999 7.17,7.17 0 0 1 0.5,-2.69 7.61,7.61 0 0 1 6.43,-4.95000002 7.48,7.48 0 1 1 -3.34,13.86999992 3.29,3.29 0 0 0 -3.32,0 l -19.1,11 a 3.38,3.38 0 0 0 -1.65,3 v 0 a 7.45,7.45 0 0 1 -3.82,6.51 3.19,3.19 0 0 0 -1.69,2.75 v 22.43 a 3.19,3.19 0 0 0 1.69,2.76 7.44,7.44 0 0 1 3.89,6.51 v 0 a 3.38,3.38 0 0 0 1.65,3 l 19.1,11 a 3.29,3.29 0 0 0 3.32,0 7.41,7.41 0 0 1 4.58,-1.05 7.51,7.51 0 0 1 6.67,6.66 z m -15.23,-32.57 a 7.51,7.51 0 0 0 4.59,-1 3.25,3.25 0 0 1 3.31,0 l 19.11,11 a 3.41,3.41 0 0 1 1.65,3 v 0 a 7.48,7.48 0 0 0 3.83,6.52 3.18,3.18 0 0 1 1.68,2.75 v 22.370003 a 3.18,3.18 0 0 1 -1.68,2.75 7.48,7.48 0 0 0 -3.83,6.52 v 0 a 3.39,3.39 0 0 1 -1.64,3 l -19.1,11 a 3.24,3.24 0 0 1 -3.32,0 7.48,7.48 0 1 0 -3.33,13.85 7.6,7.6 0 0 0 6.44,-4.87 6.91,6.91 0 0 0 0.49,-2.68 3.33,3.33 0 0 1 1.65,-2.9 l 19.1,-11 a 3.29,3.29 0 0 1 3.32,0 7.41,7.41 0 0 0 4.580005,1 7.47,7.47 0 0 0 2.95,-14 3.21,3.21 0 0 1 -1.69,-2.77 V 78.198617 a 3.22,3.22 0 0 1 1.69,-2.77 7.47,7.47 0 1 0 -7.530005,-12.9 3.29,3.29 0 0 1 -3.32,0 l -19.1,-11 a 3.32,3.32 0 0 1 -1.65,-2.9 6.94,6.94 0 0 0 -0.49,-2.68 7.59,7.59 0 0 0 -6.44,-4.91 7.48,7.48 0 0 0 -1.27,14.9 z"
     class="cls-1" />
</svg>
